# xmcd
#
# Track frame offsets: 
#        150
#        16375
#        41444
#        64063
#        83898
#        110235
#        126248
#        147486
#        162881
#        179923
#
# Disc length: 2615 seconds
#
# Revision: 0
# Processed by: cddbd v1.5.2PL0 Copyright (c) Steve Scherf et al.
# Submitted via: ExactAudioCopy v1.3
#
DISCID=920a350a
DTITLE=Maurice Tani - The Lovers Card
DYEAR=2018
DGENRE=Country
TTITLE0=Something to Hide
TTITLE1=It Finally Fell for You
TTITLE2=It Looked Like You Had It all
TTITLE3=The Lovers Card
TTITLE4=New Dress
TTITLE5=Take Me With You
TTITLE6=Falling
TTITLE7=Three Small Words
TTITLE8=Push Me Away
TTITLE9=Out With The Old
EXTD=
EXTT0=
EXTT1=
EXTT2=
EXTT3=
EXTT4=
EXTT5=
EXTT6=
EXTT7=
EXTT8=
EXTT9=
PLAYORDER=
